<?xml version="1.0" encoding="utf-8"?>
<!-- Generator: Adobe Illustrator 23.0.6, SVG Export Plug-In . SVG Version: 6.00 Build 0)  -->
<svg version="1.1" id="Calque_1" xmlns="http://www.w3.org/2000/svg" xmlns:xlink="http://www.w3.org/1999/xlink" x="0px" y="0px"
	 viewBox="0 0 500 142.5" style="enable-background:new 0 0 500 142.5;" xml:space="preserve">
<g>
	<path d="M251.6,78.7h-19.3v28h19.3c0,0,19.3,0.9,19.3-14.6C270.8,92.1,271.4,78.6,251.6,78.7z"/>
	<path d="M261.7,48.2c0,0,0.6-11.4-14.7-12.2h-14.7v26.5h12.5C244.8,62.5,261.7,62.3,261.7,48.2z"/>
	<path d="M174.4,0v142.5h151.2V0H174.4z M289.7,93.6c0,29-34.4,28.9-34.4,28.9h-41.2V20.1H250c32.4,3,30.4,27.4,30.4,27.4
		c0.1,14.9-13.1,20.5-13.1,20.5C290.5,73.9,289.7,93.6,289.7,93.6z"/>
</g>
<g>
	<path d="M87.3,48.2c0,0,0.6-11.4-14.7-12.2H58v26.5h12.5C70.5,62.5,87.3,62.3,87.3,48.2z"/>
	<path d="M77.2,78.7H58v28h19.3c0,0,19.3,0.9,19.3-14.6C96.5,92.1,97.1,78.6,77.2,78.7z"/>
	<path d="M0,0v142.5h151.2V0H0z M115.3,93.6c0,29-34.4,28.9-34.4,28.9H39.7V20.1h35.9c32.4,3,30.4,27.4,30.4,27.4
		C106.2,62.4,93,68,93,68C116.1,73.9,115.3,93.6,115.3,93.6z"/>
</g>
<path d="M348.8,0v142.5H500V0H348.8z M470.1,114.3c0,0-31.1,18.5-67.1,4.2c0,0-30.3-11.1-31.4-47.3c0,0-1.3-37.3,39.1-49.7
	c0,0,10.8-4.1,30.2-2.3c0,0,11.6,1.1,28.3,8.1v18.9c0,0-18.5-11.4-38.9-11.6c0,0-38.1-0.7-39.8,36.5c0,0-1.4,34.3,39.3,36.2
	c0,0,17.1,2.1,40.3-12.7V114.3z"/>
</svg>
