<?xml version="1.0" encoding="UTF-8" standalone="no"?>
<!DOCTYPE svg PUBLIC "-//W3C//DTD SVG 1.1//EN" "http://www.w3.org/Graphics/SVG/1.1/DTD/svg11.dtd">
<svg width="100%" height="100%" viewBox="0 0 142 54" version="1.1" xmlns="http://www.w3.org/2000/svg" xmlns:xlink="http://www.w3.org/1999/xlink" xml:space="preserve" xmlns:serif="http://www.serif.com/" style="fill-rule:evenodd;clip-rule:evenodd;stroke-linejoin:round;stroke-miterlimit:2;">
    <path d="M17,53.8C16.2,53.8 15.3,53.7 14.5,53.6C10.5,52.9 7.3,50.7 5.1,47.5C2.3,43.2 1.5,36.9 2.5,29.2C1.9,29.1 1.3,28.8 0.8,28.3C-0.4,27.1 -0.3,25.2 0.8,24.1C2.1,22.9 3.2,21.7 4.3,20.5C8.3,7.2 15.5,1 15.9,0.7C16.6,0.1 17.5,-0.1 18.4,0C19.3,0.2 20.1,0.7 20.5,1.5C23.3,6.8 15.5,17 9.8,23.2C9.7,23.4 9.7,23.7 9.6,23.9C9.1,26 8.7,28 8.4,29.9C9.7,26.9 13.2,20.7 20.2,19.4C22.1,19 24,19.1 25.8,19.5C28.5,18.7 31.4,18.2 34.4,18.2C43.3,18.2 47.7,19.4 48.6,22.2C48.8,22.9 48.8,23.6 48.6,24.3C45.3,32.8 41.5,44.5 46.3,47.1C47.4,47.7 48.5,47.8 49.9,47.4C53.8,46.2 58,41.3 60.4,37.5L60.4,36.4C60.6,32.6 62.8,23.7 65.6,21.2C67.1,19.9 68.8,20.1 69.9,20.9C71.8,22.3 71.5,24.9 70.2,29.3C69.3,32.5 68,35.8 66.8,38.3C66.7,38.6 66.5,38.9 66.4,39.2C66.4,44.4 67.7,46.4 70.9,46.8C73.5,47.1 77,44.5 80.5,40.2C79.6,33.5 81.1,26.2 82.1,22.4C83.6,16.7 85.9,11.3 88.5,7.1C91.4,2.4 94.1,0.1 96.7,0.1C98.1,0.1 99.3,0.8 100.1,2C103,6.4 99.4,18.3 96.8,24.7C94.3,30.7 90.7,37 87,41.9C87.8,44.7 89.2,46.1 89.8,46.7C91.4,48 93.4,48.2 95.2,47.4C98.5,45.6 103,42.1 107.1,37.7C106.3,32.6 106.8,27.2 108,22.8C109.4,17.6 111.6,12.2 113.9,8.1C116.9,2.8 119.7,0.2 122.6,0.2C123.9,0.2 125.1,0.8 125.9,1.9C126.6,2.9 128.9,6 123.6,22.3C125.4,21.2 127.5,20.4 130.2,20.4C134.1,20.4 137.3,21.9 139.4,24.7C142,28.2 142.5,33.5 140.7,39.2C138.3,47 130.6,54.5 121.9,53.8C117.3,53.4 113.5,51.2 110.8,47.5C110.1,46.5 109.5,45.4 109,44.3C105.1,48 101.2,51 98,52.7L97.9,52.7C94,54.5 89.4,54 86,51.2C84.5,50 83.4,48.5 82.5,46.9C78.1,51.3 73.9,53.3 70.1,52.7C65.2,52.1 62.8,49.2 61.6,46C58.8,49.1 55.4,52 51.7,53.1C48.8,54 45.9,53.7 43.4,52.3C34.6,47.3 38.9,33.3 42.1,24.7C40.7,24.4 38.4,24.2 34.5,24.2C33.9,24.2 33.3,24.2 32.7,24.3C34.8,27.5 35.5,31.8 34.5,36.8C33.5,42.6 30.3,47.7 25.8,50.8C23.1,52.8 20,53.8 17,53.8ZM8.1,34C7.9,38.3 8.6,41.8 10.1,44.2C11.3,46.1 13.1,47.3 15.5,47.7C18.4,48.2 20.8,47.1 22.4,46C25.6,43.8 27.9,40 28.6,35.8C29.4,31.9 28.8,28.7 27,26.9C26.6,26.5 26.2,26.2 25.8,26C18.2,28.9 12.9,34.5 12.8,34.6C11.8,35.6 10.3,35.8 9.1,35.1C8.7,34.8 8.3,34.4 8.1,34ZM113.6,39.3C114.1,41 114.8,42.6 115.7,43.9C117.3,46.2 119.5,47.5 122.4,47.7C128,48.2 133.3,42.7 135,37.3C136.2,33.5 136,30.1 134.6,28.2C133.7,27 132.2,26.3 130.2,26.3C125.5,26.3 123.1,31.7 123.1,31.8C122.5,33.3 120.7,34 119.2,33.4C119,33.3 118.7,33.2 118.5,33C117,35.2 115.3,37.3 113.6,39.3ZM95.2,7.9C93.1,10.6 90,16 87.9,23.9C87.1,26.9 86.6,29.5 86.4,31.8C88.2,28.7 89.9,25.5 91.3,22.3C93.8,16 94.9,11 95.2,7.9ZM120.9,8.1C118.8,11 115.8,16.7 113.8,24.3C113.3,26.2 112.9,28.4 112.8,30.7C114.9,27.7 116.5,24.6 117.6,21.6C119.6,15.3 120.6,10.8 120.9,8.1Z" style="fill:white;fill-rule:nonzero;"/>
</svg>
