<?xml version="1.0" encoding="utf-8"?>
<!-- Generator: Adobe Illustrator 23.0.6, SVG Export Plug-In . SVG Version: 6.00 Build 0)  -->
<svg version="1.1" id="Layer_1" xmlns="http://www.w3.org/2000/svg" xmlns:xlink="http://www.w3.org/1999/xlink" x="0px" y="0px"
	 viewBox="0 0 1024 1024" style="enable-background:new 0 0 1024 1024;" xml:space="preserve">
<style type="text/css">
	.st0{fill:#FFFFFF;}
</style>
<rect width="1024" height="1024"/>
<path class="st0" d="M482,247.2c-16.4-51.6-34-68-124.4-68h-70c-21.2,0-26,4.8-26,23.6v146.4H296c72,0,87.6-12.8,96.8-61.2h17.6
	v163.2h-17.6c-9.6-54.4-36.8-68-96.8-68h-34.4v151.2h0.4c0,48.4,12.8,53.6,68,56V608H110.8v-17.6c45.6-2,58.4-7.6,58.4-56V218.8
	c0-48.4-12.8-53.6-57.2-56v-17.6h386.4l2.8,102H482z M922.8,247.2c-14.8-50-36.8-68-85.6-68H780v355.2c0,48.4,12.8,54,65.2,56V608
	H622v-17.6c52.4-2.4,65.2-7.6,65.2-56V179.2H630c-48.8,0-70.8,18-85.6,68h-23.2l9.6-102H936l10,102H922.8z"/>
</svg>
