<?xml version="1.0" encoding="UTF-8" standalone="no"?>
<!DOCTYPE svg PUBLIC "-//W3C//DTD SVG 1.1//EN" "http://www.w3.org/Graphics/SVG/1.1/DTD/svg11.dtd">
<svg width="100%" height="100%" viewBox="0 0 500 190" version="1.1" xmlns="http://www.w3.org/2000/svg" xmlns:xlink="http://www.w3.org/1999/xlink" xml:space="preserve" xmlns:serif="http://www.serif.com/" style="fill-rule:evenodd;clip-rule:evenodd;stroke-linejoin:round;stroke-miterlimit:2;">
    <path d="M250.1,0C111.9,0 0,42.4 0,94.6C0,146.8 111.9,189.1 250.1,189.1C388.1,189.1 500,146.9 500,94.6C500,42.4 388.1,0 250.1,0ZM250.1,179.5C117.6,179.5 9.9,141.8 9.9,94.7C9.9,47.8 117.6,9.6 250.1,9.6C383,9.6 490.5,47.8 490.5,94.7C490.5,141.7 382.9,179.5 250.1,179.5Z" style="fill:white;"/>
    <g>
        <path d="M229.9,71.8C230.9,70.8 232.5,67.9 232.2,66C232,65 231.6,63.9 230.4,64.1C228,64.6 226.5,65.7 225.9,68.1C225.1,70.7 225.4,72.5 225.9,74.4C225.9,74.3 227.5,74.5 229.9,71.8Z" style="fill:white;"/>
        <path d="M344.6,96.9C339,96.3 331.9,101.1 326.1,108.2C323.2,111.7 320.1,118.5 319.7,122.5C319.1,126.5 320.2,130.6 321.6,131.7C323.1,132.8 329.5,136.2 339.5,126.1C345.1,120.5 350.6,111.3 350.6,111.3L348.8,110.8C352.1,104.5 351.5,97.7 344.6,96.9Z" style="fill:white;"/>
        <path d="M228.2,41.8C228,41.8 227.8,41.8 227.6,41.9C228.1,42 228.7,42.2 229.2,42.3C228.8,41.9 228.4,41.8 228.2,41.8Z" style="fill:white;"/>
        <path d="M250.1,16.6C121.4,16.6 17.4,51.6 17.4,94.6C17.4,137.8 121.4,172.8 250.1,172.8C378.6,172.8 482.9,137.8 482.9,94.6C482.9,51.6 378.6,16.6 250.1,16.6ZM136.1,142.7C122.1,142.7 109.7,133.5 109.3,117.1C109.1,107.1 117.2,94.8 132.2,91.1C134,91.1 134.6,91.7 134.6,92.7C134.6,93.3 134,94.2 132.5,94.8C128.1,96.4 120.6,105 120.6,112.9C120.6,118.9 124.3,125.5 130.6,126.9C132.4,127.4 134,127.2 135.6,127.2C151.2,127.2 168.8,109.6 187.8,82.9C184.7,83.1 171.7,84.5 168.5,88.2C167,89.3 166.1,88.7 165.8,87.4C165.8,87.1 166.3,85.9 166.8,85.3C172,79.5 187.4,78.2 191.1,77.7C205,56.4 222.7,42.8 227.6,41.8C227.5,41.8 227.4,41.7 227.2,41.7C214.8,38.8 203.5,36.4 194.6,36.4C163.5,36.4 149.6,49.8 150.3,62C150.6,67 154.7,70.2 160.6,69.1C167.1,68 176.1,61.8 178.3,56.5C178.8,55.4 180.1,55.2 180.6,55.5C181.6,56.3 181.2,57.4 181.2,57.4C180.4,63.7 170.7,81.1 154,81.1C144.6,81.1 138.4,72.4 138.5,63.8C138.7,47.8 154.9,31.7 195.1,31.7C202.7,31.7 211.2,32.3 220.6,34C231.4,35.9 258.3,40.5 280.3,40.8C288.4,40.8 298.7,41.1 307.1,39.8C316,38.3 314,38 317.6,38C320.8,38 320.8,39.3 320.8,40.6C320.8,45.8 302.7,55.6 287.4,55.6C264.8,55.6 241.4,45.4 229.3,42.1C229.8,42.5 230.1,43.2 229.7,44.2C229.5,44.5 227.9,46.3 227.3,46.8C224.1,49.7 213.1,56.8 201.2,76.9C210.9,76.4 222.2,74.5 222.2,74.5C222.2,74.5 221.6,72.4 221.6,70.6C222.1,63.7 226.1,59.5 231.3,60.3C234.2,60.8 236.1,63.2 236.1,65.8C236.1,68.5 234,72.6 231.9,74.5C230.5,75.6 228.8,76.8 226.9,77.7C226.9,79.5 229.3,80.9 231.4,81.1C230.9,82.9 231.1,83.7 230.3,83.5C225.5,83.5 223.5,78.8 223.5,78.8C217.1,79.9 210.8,80.7 198,82C165.8,134.2 155.8,142.7 136.1,142.7ZM357.1,134.2C364,133.9 376.8,120.7 379.8,117.4C380.4,116.6 381.6,115.1 382.2,115.1C382.8,115.1 384.1,115.7 384.1,116.7C384.1,117.3 382.6,119.8 381.5,121.2C375.1,129.3 364.4,141.7 352.3,142C346.3,142 344.1,139.6 343.3,134.9C340.6,137.3 331.2,141.5 321.7,141.5C313.8,141.3 310.6,136.7 309,133C307.6,129.9 306.9,125.4 308,120.9C303.6,123.2 299.6,123.5 293.8,123.3C287,123.1 282.8,120.1 280.7,112.2C273,126.4 272.6,126.9 264.7,141.7L251,141.7L268.6,111.9C270.9,107.9 272,104.6 272.8,101.3C273.3,99.4 271.8,97.6 269.7,97.4C267.4,97.4 263.7,99.7 260.2,103C260.2,103 251.2,112.7 244.6,122.5C238.3,131.9 227.5,142.5 215.7,142.5C207.2,142.5 199.4,137.8 197.8,128.8C197.8,128.8 197,130.9 189.4,135.2C188.8,135.5 187.1,136.5 186.7,136.2C185.2,134.9 184.4,133.3 184.3,132.2C184.8,132.4 185.8,131.6 188.8,129.1C194.8,124.6 196.1,121 196.1,121C197.6,117.9 200.1,113.1 201.9,109.7C206.7,100 215.1,90.2 228.8,89.7C231.1,89.7 231.7,90.7 232.2,91.5C233.5,92.5 233,94.4 233,94.4C223.3,95.9 216.7,101.5 212.7,107C210.3,110.5 207.7,116.4 207.2,120.5C206.2,127.8 209.6,132.6 214.6,133.7C224,135.2 231.7,128.4 237.8,117.9C239.4,115.2 240.5,108.1 240.5,104.2C240.5,100.3 238.4,96.3 236.8,94.7C236.8,92 238.6,90.2 240.7,90.2C241.3,90.2 242,90.2 242.6,90.8C245.8,94 247.6,100.2 247.6,104.8C247.6,106.4 247.6,108 247.3,109.6C254.1,101.4 262.6,90.7 269.2,88.6C270.5,88 271.8,88 273.1,88C285.2,87.7 283.6,98.6 283.6,98.6C290,91.2 294.6,88.4 300.5,88.8C307,89.1 309.2,93.6 309.2,97.2C309,101.4 306,106.2 300.7,106.4C296,106.4 293.3,104.1 291.8,100C288.7,101.1 287.3,103.2 286.6,107.4C285.6,112.7 289.7,116.9 294.8,116.9C303.7,116.9 307.5,113 310.8,110.1C321.8,99.8 327.9,89 343.7,89.1C353.2,89.3 355.6,96.8 357.2,100.1L378,64.9L391,64.9L356.5,126C355.9,127.3 354.2,129.7 354.4,131.6C354.7,135 358.6,134.2 357.1,134.2Z" style="fill:white;"/>
    </g>
</svg>
