<?xml version="1.0" encoding="utf-8"?>
<!-- Generator: Adobe Illustrator 23.0.6, SVG Export Plug-In . SVG Version: 6.00 Build 0)  -->
<svg version="1.1"
	 id="svg3528" xmlns:cc="http://creativecommons.org/ns#" xmlns:dc="http://purl.org/dc/elements/1.1/" xmlns:inkscape="http://www.inkscape.org/namespaces/inkscape" xmlns:rdf="http://www.w3.org/1999/02/22-rdf-syntax-ns#" xmlns:sodipodi="http://sodipodi.sourceforge.net/DTD/sodipodi-0.dtd" xmlns:svg="http://www.w3.org/2000/svg"
	 xmlns="http://www.w3.org/2000/svg" xmlns:xlink="http://www.w3.org/1999/xlink" x="0px" y="0px" viewBox="0 0 500 85.6"
	 style="enable-background:new 0 0 500 85.6;" xml:space="preserve">
<sodipodi:namedview  bordercolor="#666666" borderopacity="1.0" fit-margin-bottom="0" fit-margin-left="0" fit-margin-right="0" fit-margin-top="0" id="base" inkscape:current-layer="layer1" inkscape:cx="203.83775" inkscape:cy="15.633334" inkscape:document-units="px" inkscape:pageopacity="0.0" inkscape:pageshadow="2" inkscape:window-height="720" inkscape:window-maximized="1" inkscape:window-width="1280" inkscape:window-x="-8" inkscape:window-y="-8" inkscape:zoom="2.8" pagecolor="#ffffff" showgrid="false">
	</sodipodi:namedview>
<g id="layer1" transform="translate(-258.41588,-242.42087)" inkscape:groupmode="layer" inkscape:label="Layer 1">
	<g id="g4333" transform="matrix(0.96871236,0,0,0.96871236,9.5137955,8.6562417)">
		<path id="path170" inkscape:connector-curvature="0" d="M320.4,278.2c0.2-7.2,4-11.4,10.1-11.4c6,0,9.9,4.2,10.1,11.4H320.4
			L320.4,278.2z M352,286.5v-5.1c0-12.5-7.6-24-21.3-23.9c-14.2,0-22.7,10.5-22.7,27c0,16.5,8.5,27,22.1,27
			c10.1,0,17.1-3.2,21.9-10.6l-9-5.6c-3.1,3.6-5.8,6.2-11.7,6.2c-5.8,0-10.7-4.2-10.9-15L352,286.5L352,286.5z"/>
		<path id="path174" inkscape:connector-curvature="0" d="M425.3,319.1c1.9,0.4,3.4,0.4,5.2,0.4c4.3,0,6.7-1.2,8.2-4.1
			c1.2-2.5,2-4,2-6.1c0-1.9-1-4.1-1.6-6.2l-13.9-44.5h12.5l8.6,32.1h0.2l8.9-32.1h12.4l-16.5,52.2c-5.5,14.9-9.9,18.9-20.1,18.9
			c-3,0-4.5-0.2-6-0.4L425.3,319.1L425.3,319.1z"/>
		<path id="path178" inkscape:connector-curvature="0" d="M360.9,299.6c0,7.4,3.6,12,12.8,12c3.4,0,6.4-0.4,9.8-0.8v-10.2
			c-1.8,0.4-3.8,1-5.7,1c-3.1,0-4.5-0.8-4.5-3.6v-29.4h23.3v31c0,7.4,3.6,12,12.8,12c3.4,0,6.4-0.4,9.8-0.8v-10.2
			c-1.8,0.4-3.8,1-5.7,1c-3.1,0-4.5-0.8-4.5-3.6v-29.4h10.2v-10h-10.2v-17.2h-12.4v17.2h-23.3v-17.2h-12.4V299.6z"/>
		<path id="path182" inkscape:connector-curvature="0" d="M483.8,310.6h-6v-52.1h6V310.6z"/>
		<path id="path184" inkscape:connector-curvature="0" d="M477.8,241.5h6v8.8h-6V241.5z"/>
		<path id="path196" inkscape:connector-curvature="0" d="M496.9,310.6v-52.1h6v7.8c5.3-5.6,9.2-8.9,17.4-8.9
			c5.8,0,11.1,3.7,12.6,9.5c4.7-5.5,9.7-9.5,17.3-9.5c9.1,0,13.7,5,13.7,14.1v39h-6v-39.6c0-5.8-3.2-8.7-9-8.7
			c-4.6,0-12.3,4.9-15.5,10v38.4h-6v-39.6c0-5.8-3.2-8.7-9.1-8.7c-4.6,0-12.2,4.9-15.4,10v38.4H496.9L496.9,310.6z"/>
		<path id="path200" inkscape:connector-curvature="0" d="M606.9,298.2c-5.2,5.3-12.2,8.6-17.8,8.6c-5.4,0-9.4-3.2-9.4-8.9
			c0-6.6,3.2-11.5,27.2-16.7V298.2L606.9,298.2z M613.7,310.6c-0.6-3.5-0.8-6.9-0.8-9.5v-27.3c0-11.6-5.6-16.3-17.5-16.3
			c-8.4,0-14.9,3.4-19.4,11.8l4,2.4c3.8-6,9-9.5,15.2-9.5c9,0,12,3.5,12,10.5v3.6c-21.8,4.8-33.5,7.4-33.5,21.7
			c0,8.7,6.2,13.6,14.4,13.6c8,0,12.8-2.4,19-7.3l0.8,6.2H613.7L613.7,310.6z"/>
		<path id="path204" inkscape:connector-curvature="0" d="M679.7,279.9c0.1-7,4.6-17.9,15.3-17.7c9.1,0.1,13.8,7,15,17.7H679.7z
			 M716,284.7c0-16.2-6.7-27.3-20.9-27.3c-13.2,0-21.5,10.9-21.5,27.1c0,18.4,8.6,27.1,22.3,27.1c9.9,0,15-3.5,20.6-12.7l-4.9-2.6
			c-5.2,8.3-8.5,10.6-15.3,10.6c-11.8,0-16.8-10.3-16.8-22.1L716,284.7L716,284.7z"/>
		<path id="path208" inkscape:connector-curvature="0" d="M727.4,298c4.9,7,9.4,8.8,16.2,8.8c6.6,0,11.7-4.3,11.7-10
			c0-15.2-30.7-6.6-30.7-25.2c0-9.9,7.7-14.2,16.6-14.2c8.7,0,14.3,3.4,18,9.4l-4.6,3.2c-3.5-4.8-7.4-7.9-13.6-7.9
			c-5.8,0-10.4,2.8-10.4,9.2c0,12.8,30.8,5.2,30.8,25.5c0,9.4-8.6,14.7-18.1,14.7c-8,0-15.3-3.2-20.2-10.5L727.4,298L727.4,298z"/>
		<path id="path212" inkscape:connector-curvature="0" d="M288.2,275.6c0,4.8-3.8,8.6-8.5,8.6c-5.3,0-9-3.8-9-8.6
			c0-4.8,3.7-8.6,9-8.6C284.3,267,288.2,270.8,288.2,275.6 M257.4,313.8c-0.3,0.8-0.6,2.2-0.5,3.8c0.4,8.2,9.1,12.1,23.1,12.1
			c16.6,0,24.1-8,24.1-15.4c0-20.8-34.2-9.4-34.2-17.8c0-3,4.3-3.2,9.7-3.2c13.1,0,19.7-7,19.7-16.8c0-4-1.2-7-2.8-9.2
			c1.9-1.2,5.1-1.2,8-1.2v-8.3c-5.9-0.2-9.8,1.4-12.2,4.6c-3.2-2.8-8.4-4.6-12.8-4.6c-13.5,0-20.5,9-20.5,18.1
			c0,6.3,3.4,10.3,7.7,13.8c-2.3,0.7-8.1,4.5-8.1,9.5c0,6.8,9.1,9.4,20.6,10.1c9.3,0.6,13.8,2.9,13.8,6.5c0,2.3-2.9,5.6-10.9,5.8
			c-13,0.4-14.4-3.5-13.5-7.5L257.4,313.8L257.4,313.8z"/>
		<path id="path216" inkscape:connector-curvature="0" d="M645,306.7c15.6,0,19,4.2,19,8.5c0,5.4-5.6,8.9-18.6,8.9
			c-10.8,0-15.8-3.5-15.8-8.6C629.6,311,633.2,306.7,645,306.7 M669.7,256.6c-4.1,0-7.9,1.6-10.9,4.6c-3.3-2.2-7.1-3.6-12.1-3.6
			c-12.6,0-20.6,7.3-20.6,18.7c0,5.4,2.8,10.4,7.5,13.6c-3.8,0.8-7.8,4.4-7.8,8.8c0,4.4,3.1,6,6.9,6.8v0.2c-7.3,2.7-9.1,6.5-9.1,11
			c0,6.2,4.8,12.3,22.7,12.3c17.9,0,23.7-6.5,23.7-14.1c0-8.5-6.5-13.5-22.1-13.5c-14.1,0-16.1-1.5-16.1-4.5c0-1.9,1.5-3.8,4.8-5
			c2.6,0.9,5.1,1.6,8.4,1.6c11,0,20.1-5.4,20.1-18.2c0-5-1.4-8.1-3.7-10.9c2.1-2.1,5.6-2.4,8.3-2.4V256.6L669.7,256.6z M632.1,275.6
			c0-8.1,5.1-13.3,13.5-13.3c8.4,0,13.5,4.2,13.5,13.3c0,9-5.1,13-13.5,13C638.3,288.6,632.1,284.6,632.1,275.6"/>
		<path id="path220" inkscape:connector-curvature="0" d="M773.1,253.7c0,3.4-2.7,6.1-6.1,6.1c-3.4,0-6.1-2.8-6.1-6.1
			c0-3.4,2.7-6.1,6.1-6.1C770.4,247.6,773.1,250.4,773.1,253.7 M772.1,253.7c0-3-2.2-5.3-5.1-5.3c-2.9,0-5.2,2.4-5.2,5.3
			c0,2.9,2.2,5.3,5.2,5.3C769.9,259,772.1,256.7,772.1,253.7 M765.7,257.4h-1l0-7.3h2.8c1.6,0,2.4,0.7,2.4,2c0,1.3-0.8,1.8-1.7,2
			l2,3.2h-1.1l-2-3.2h-1.4L765.7,257.4z M766.8,253.3c1,0,2,0.1,2-1.2c0-1-0.8-1.2-1.6-1.2h-1.6v2.4L766.8,253.3L766.8,253.3z"/>
	</g>
</g>
</svg>
