<?xml version="1.0" encoding="UTF-8" standalone="no"?>
<!DOCTYPE svg PUBLIC "-//W3C//DTD SVG 1.1//EN" "http://www.w3.org/Graphics/SVG/1.1/DTD/svg11.dtd">
<svg width="100%" height="100%" viewBox="0 0 500 164" version="1.1" xmlns="http://www.w3.org/2000/svg" xmlns:xlink="http://www.w3.org/1999/xlink" xml:space="preserve" xmlns:serif="http://www.serif.com/" style="fill-rule:evenodd;clip-rule:evenodd;stroke-linejoin:round;stroke-miterlimit:2;">
    <g>
        <path id="path2998" d="M122.9,57.9L64.6,57.9L64.6,75.2L106,75.2C104,99.5 83.8,109.8 64.7,109.8C40.3,109.8 19,90.6 19,63.7C19,37.5 39.3,17.3 64.7,17.3C84.3,17.3 95.9,29.8 95.9,29.8L108,17.3C108,17.3 92.5,0 64.1,0C28,0 0,30.5 0,63.4C0,95.7 26.3,127.2 65,127.2C99,127.2 124,103.9 124,69.4C124,62.1 122.9,57.9 122.9,57.9Z" style="fill:white;fill-rule:nonzero;"/>
        <path id="path3000" d="M170.7,45.4C146.8,45.4 129.6,64.1 129.6,85.9C129.6,108.1 146.2,127.1 171,127.1C193.4,127.1 211.7,110 211.7,86.4C211.7,59.3 190.4,45.4 170.7,45.4ZM171,61.4C182.8,61.4 193.9,70.9 193.9,86.3C193.9,101.3 182.8,111.1 170.9,111.1C157.9,111.1 147.6,100.7 147.6,86.2C147.6,72 157.7,61.4 171,61.4Z" style="fill:white;fill-rule:nonzero;"/>
        <path id="path3005" d="M260.1,45.4C236.2,45.4 219,64.1 219,85.9C219,108.1 235.6,127.1 260.4,127.1C282.8,127.1 301.1,110 301.1,86.4C301.1,59.3 279.8,45.4 260.1,45.4ZM260.3,61.4C272.1,61.4 283.2,70.9 283.2,86.3C283.2,101.3 272.1,111.1 260.2,111.1C247.2,111.1 236.9,100.7 236.9,86.2C236.9,72 247.1,61.4 260.3,61.4Z" style="fill:white;fill-rule:nonzero;"/>
        <path id="path3007" d="M347.8,45.4C325.8,45.4 308.6,64.6 308.6,86.2C308.6,110.8 328.6,127.1 347.5,127.1C359.2,127.1 365.3,122.5 369.9,117.2L369.9,125.3C369.9,139.4 361.3,147.9 348.4,147.9C335.9,147.9 329.6,138.6 327.5,133.3L311.8,139.9C317.4,151.7 328.6,164 348.6,164C370.4,164 387.1,150.2 387.1,121.4L387.1,47.9L370,47.9L370,54.8C364.5,49.1 357.3,45.4 347.8,45.4ZM349.4,61.4C360.2,61.4 371.2,70.6 371.2,86.3C371.2,102.3 360.2,111.1 349.1,111.1C337.4,111.1 326.5,101.6 326.5,86.5C326.5,70.8 337.8,61.4 349.4,61.4Z" style="fill:white;fill-rule:nonzero;"/>
        <path id="path3011" d="M463.2,45.3C442.5,45.3 425.1,61.8 425.1,86.1C425.1,111.8 444.5,127.1 465.2,127.1C482.5,127.1 493.1,117.6 499.4,109.2L485.3,99.8C481.6,105.5 475.5,111.1 465.3,111.1C453.8,111.1 448.5,104.8 445.2,98.7L500,75.9L497.2,69.2C491.9,56.2 479.5,45.3 463.2,45.3ZM463.9,61C471.4,61 476.7,65 479,69.7L442.4,85C440.8,73.2 452,61 463.9,61Z" style="fill:white;fill-rule:nonzero;"/>
        <rect id="path3015" x="398.9" y="4.2" width="18" height="120.5" style="fill:white;fill-rule:nonzero;"/>
    </g>
</svg>
