<?xml version="1.0" encoding="UTF-8" standalone="no"?>
<!DOCTYPE svg PUBLIC "-//W3C//DTD SVG 1.1//EN" "http://www.w3.org/Graphics/SVG/1.1/DTD/svg11.dtd">
<svg width="100%" height="100%" viewBox="0 0 500 82" version="1.1" xmlns="http://www.w3.org/2000/svg" xmlns:xlink="http://www.w3.org/1999/xlink" xml:space="preserve" xmlns:serif="http://www.serif.com/" style="fill-rule:evenodd;clip-rule:evenodd;stroke-linejoin:round;stroke-miterlimit:2;">
    <g>
        <path d="M444,79.3L457.6,79.3L457.6,58.8L466.3,49.1L484.1,79.3L500,79.3L475.1,38.7L498.5,11.9L481.7,11.9L457.6,41.1L457.6,11.9L444,11.9L444,79.3Z" style="fill:white;fill-rule:nonzero;"/>
        <path d="M397.6,67.1C395.9,66.5 394.4,65.6 393.2,64.5C392,63.3 391,61.8 390.3,60C389.6,58.2 389.2,56.1 389.2,53.6L389.2,11.8L375.7,11.8L375.7,55.7C375.7,59.5 376.4,62.9 377.7,65.9C379.1,68.9 381,71.5 383.4,73.7C385.8,75.8 388.7,77.5 392.1,78.6C395.5,79.8 399.1,80.3 403.1,80.3C407.1,80.3 410.7,79.7 414.1,78.6C417.5,77.4 420.3,75.8 422.8,73.7C425.2,71.6 427.1,69 428.5,65.9C429.9,62.9 430.5,59.5 430.5,55.7L430.5,11.8L417.1,11.8L417.1,53.6C417.1,56 416.7,58.2 416,60C415.3,61.8 414.3,63.3 413.1,64.5C411.9,65.7 410.4,66.6 408.7,67.1C407,67.7 405.1,68 403.2,68C401.2,67.9 399.3,67.7 397.6,67.1" style="fill:white;fill-rule:nonzero;"/>
        <path d="M348.3,75C348.8,76 349.4,76.9 350.2,77.7C351,78.5 351.9,79.1 353,79.5C354,79.9 355.2,80.2 356.3,80.2C357.5,80.2 358.6,80 359.6,79.5C360.6,79.1 361.5,78.4 362.3,77.7C363.1,76.9 363.7,76 364.2,75C364.7,74 364.9,72.9 364.9,71.7C364.9,70.5 364.7,69.4 364.2,68.4C363.7,67.4 363.1,66.5 362.3,65.7C361.5,64.9 360.6,64.3 359.6,63.9C358.6,63.4 357.5,63.2 356.3,63.2C355.1,63.2 354,63.4 353,63.9C351.9,64.4 351,65 350.2,65.7C349.4,66.5 348.8,67.4 348.3,68.4C347.8,69.4 347.6,70.5 347.6,71.7C347.6,72.9 347.9,74 348.3,75" style="fill:white;fill-rule:nonzero;"/>
        <path d="M326.6,79.3L345.7,11.9L330.6,11.9L317.8,62.6L317.4,62.6L304.3,11.9L289,11.9L308.1,79.3L326.6,79.3Z" style="fill:white;fill-rule:nonzero;"/>
        <path d="M243.8,66.3C241.5,65.2 239.7,63.6 238.1,61.7C236.6,59.7 235.4,57.4 234.6,54.7C233.8,52 233.4,49.1 233.4,45.9L233.4,45.5C233.4,42.3 233.8,39.4 234.6,36.7C235.4,34 236.5,31.6 238.1,29.7C239.6,27.7 241.5,26.2 243.8,25.1C246.1,24 248.7,23.4 251.6,23.4C254.5,23.4 257.1,24 259.4,25.1C261.6,26.2 263.5,27.8 265.1,29.7C266.6,31.7 267.8,34 268.6,36.7C269.4,39.4 269.8,42.4 269.8,45.5L269.8,45.9C269.8,49.1 269.4,52 268.6,54.7C267.8,57.4 266.7,59.7 265.1,61.7C263.6,63.7 261.7,65.2 259.4,66.3C257.2,67.4 254.6,68 251.6,68C248.7,67.9 246.1,67.4 243.8,66.3M238.1,13.6C234.1,15.4 230.8,17.9 228,21C225.2,24.1 223.1,27.8 221.6,32C220.1,36.2 219.4,40.7 219.4,45.6C219.4,50.5 220.1,55 221.6,59.2C223.1,63.4 225.2,67.1 228,70.2C230.8,73.3 234.1,75.8 238.1,77.6C242.1,79.4 246.6,80.3 251.6,80.3C256.6,80.3 261.1,79.4 265.1,77.6C269.1,75.8 272.5,73.3 275.2,70.2C278,67.1 280.1,63.4 281.6,59.2C283.1,55 283.8,50.5 283.8,45.6C283.8,40.8 283.1,36.2 281.6,32C280.1,27.8 278,24.1 275.2,21C272.4,17.9 269,15.4 265.1,13.6C261.1,11.8 256.6,10.9 251.6,10.9C246.6,10.9 242.1,11.8 238.1,13.6" style="fill:white;fill-rule:nonzero;"/>
        <path d="M163.6,45.3C163.6,42.4 164,39.7 164.7,37C165.4,34.3 166.5,32 168,29.9C169.5,27.9 171.4,26.2 173.6,25C175.9,23.8 178.6,23.1 181.8,23.1C183.8,23.1 185.6,23.4 187.3,23.9C188.9,24.4 190.4,25.1 191.7,26C193,26.9 194.1,28 195.1,29.2C196.1,30.4 196.9,31.8 197.6,33.2L209.6,26.5C208.5,24.1 207,22 205.2,20.1C203.4,18.2 201.3,16.5 198.9,15.2C196.5,13.8 193.9,12.8 191,12C188.1,11.3 185.1,10.9 181.9,10.9C177,10.9 172.5,11.8 168.6,13.6C164.6,15.4 161.2,17.9 158.4,21C155.6,24.1 153.4,27.8 151.9,32C150.4,36.2 149.6,40.7 149.6,45.6C149.6,50.5 150.3,55 151.6,59.2C153,63.4 155,67.1 157.6,70.2C160.2,73.3 163.4,75.8 167.3,77.6C171.1,79.4 175.5,80.3 180.4,80.3C182.5,80.3 184.5,80.1 186.4,79.6C188.3,79.2 190,78.6 191.6,77.8C193.2,77 194.6,76.1 195.8,75C197.1,73.9 198.1,72.7 199,71.4L199,79.3L211,79.3L211,42.3L180.5,42.3L180.5,52.7L197.8,52.7L197.8,53.4C197.8,54.8 197.6,56.4 197.1,58.1C196.6,59.8 195.8,61.4 194.6,62.8C193.4,64.3 191.8,65.5 189.8,66.4C187.8,67.4 185.2,67.9 182.2,67.9C179,67.9 176.3,67.3 174,66C171.7,64.8 169.8,63.1 168.4,61.1C166.9,59.1 165.8,56.7 165.1,54C164.4,51.3 164,48.6 164,45.7L164,45.3L163.6,45.3Z" style="fill:white;fill-rule:nonzero;"/>
        <path d="M21,25.6C24,26.9 27.5,25.4 28.7,22.4C29.9,19.4 28.5,15.9 25.5,14.7C22.5,13.5 19,14.9 17.8,18C16.5,20.9 18,24.3 21,25.6" style="fill:white;fill-rule:nonzero;"/>
        <path d="M7.6,33.4C10.6,34.7 14.1,33.2 15.3,30.2C16.5,27.2 15.1,23.7 12.1,22.5C9.1,21.3 5.6,22.7 4.4,25.8C3.1,28.7 4.6,32.2 7.6,33.4" style="fill:white;fill-rule:nonzero;"/>
        <path d="M3.6,48.3C6.6,49.6 10.1,48.1 11.4,45.1C12.6,42.1 11.2,38.6 8.2,37.4C5.2,36.2 1.7,37.6 0.5,40.7C-0.8,43.7 0.6,47.1 3.6,48.3" style="fill:white;fill-rule:nonzero;"/>
        <path d="M35.9,30.3C38.9,31.6 42.4,30.1 43.6,27.1C44.8,24.1 43.4,20.6 40.4,19.4C37.4,18.2 33.9,19.6 32.7,22.7C31.5,25.6 33,29.1 35.9,30.3" style="fill:white;fill-rule:nonzero;"/>
        <path d="M90.2,25.6C87.2,26.9 83.7,25.4 82.4,22.4C81.2,19.4 82.6,15.9 85.6,14.7C88.6,13.5 92.1,14.9 93.3,18C94.6,20.9 93.2,24.3 90.2,25.6" style="fill:white;fill-rule:nonzero;"/>
        <path d="M103.6,33.4C100.6,34.7 97.1,33.2 95.9,30.2C94.7,27.2 96.1,23.7 99.1,22.5C102.1,21.3 105.6,22.7 106.8,25.8C108,28.7 106.6,32.2 103.6,33.4" style="fill:white;fill-rule:nonzero;"/>
        <path d="M107.5,48.3C104.5,49.6 101,48.1 99.8,45.1C98.6,42.1 100,38.6 103,37.4C106,36.2 109.5,37.6 110.7,40.7C112,43.7 110.5,47.1 107.5,48.3" style="fill:white;fill-rule:nonzero;"/>
        <path d="M75.2,30.3C72.2,31.6 68.7,30.1 67.4,27.1C66.2,24.1 67.6,20.6 70.6,19.4C73.6,18.2 77.1,19.6 78.3,22.7C79.7,25.6 78.2,29.1 75.2,30.3" style="fill:white;fill-rule:nonzero;"/>
        <path d="M58.7,15L66.2,18.9L66.2,7.9L58.7,10.3C58.5,10 58.3,9.7 58,9.5L61,0L55.6,0L50.2,0L53.2,9.5C52.9,9.7 52.7,10 52.5,10.2L45,7.8L45,18.8L52.5,14.9C52.7,15.2 53,15.4 53.3,15.7L49,28.7C48.8,29.3 48.7,30 48.7,30.7C48.7,34.2 51.3,37.1 54.7,37.6L54.9,37.6C55.2,37.6 55.5,37.7 55.8,37.7C56.1,37.7 56.4,37.7 56.7,37.6L56.8,37.6C60.2,37.1 62.8,34.2 62.8,30.7C62.8,30 62.7,29.3 62.5,28.7L58.2,15.7C58.2,15.6 58.5,15.3 58.7,15" style="fill:white;fill-rule:nonzero;"/>
        <path d="M55.6,78.5C69.8,78.5 83.3,79.5 95.3,81.2C98.7,66.9 102.8,58.7 107.1,52.8L99,50C99.8,54.1 99.9,56 99,58.6C97.7,57.3 96.4,54.9 95.4,51.3L91.5,64.3C93.9,62.7 95.7,61.6 97.8,61.6C94.1,69.6 89.4,71.7 86.4,71.1C82.7,70.4 81,67.2 81.6,64.4C82.4,60.5 86.5,59.4 88.4,64C92,56.6 85.9,54.3 81.9,56.5C87.9,50.5 88.6,45.1 83.8,38.6C77,43.8 76.9,49 80,56.2C76,51.7 69.8,54.1 72.1,61.4C75,57 78.8,59.8 78.2,64C77.7,67.7 72.8,70.6 66.8,70.1C58.1,69.3 57.6,63.3 57.4,58.4C59.5,58 63.4,60 66.6,64.6L67.8,50.8C64.2,54.5 61,55.2 57.4,55.3C58.6,51.6 64.1,45.5 64.1,45.5L56.1,45.5L47,45.5C47,45.5 52.5,51.6 53.7,55.3C50.1,55.2 46.9,54.5 43.3,50.8L44.5,64.6C47.8,60 51.6,58 53.7,58.4C53.5,63.3 53,69.3 44.3,70.1C38.3,70.6 33.4,67.7 32.9,64C32.3,59.8 36.1,57 39,61.4C41.2,54.1 35,51.6 31.1,56.2C34.2,49 34.1,43.8 27.3,38.6C22.4,45.1 23.1,50.5 29.2,56.5C25.3,54.3 19.1,56.6 22.7,64C24.6,59.4 28.6,60.4 29.5,64.4C30.1,67.2 28.4,70.5 24.7,71.1C21.7,71.7 17.1,69.6 13.3,61.6C15.4,61.6 17.2,62.7 19.6,64.3L15.7,51.3C14.7,55 13.5,57.3 12.1,58.6C11.2,56 11.3,54.1 12.1,50L4,52.9C8.3,58.7 12.4,66.9 15.8,81.2C27.9,79.5 41.4,78.5 55.6,78.5" style="fill:white;fill-rule:nonzero;"/>
    </g>
</svg>
