<?xml version="1.0" encoding="UTF-8" standalone="no"?><!DOCTYPE svg PUBLIC "-//W3C//DTD SVG 1.1//EN" "http://www.w3.org/Graphics/SVG/1.1/DTD/svg11.dtd"><svg width="100%" height="100%" viewBox="0 0 500 133" version="1.1" xmlns="http://www.w3.org/2000/svg" xmlns:xlink="http://www.w3.org/1999/xlink" xml:space="preserve" xmlns:serif="http://www.serif.com/" style="fill-rule:evenodd;clip-rule:evenodd;stroke-linejoin:round;stroke-miterlimit:2;"><g><g><rect x="0" y="0" width="72.8" height="14.6" style="fill:#fff;"/><rect x="43.7" y="29.1" width="101.9" height="14.6" style="fill:#fff;"/><rect x="43.7" y="58.3" width="116.5" height="14.6" style="fill:#fff;"/><rect x="43.7" y="87.4" width="101.9" height="14.6" style="fill:#fff;"/><rect x="43.7" y="116.5" width="72.8" height="14.6" style="fill:#fff;"/></g><path d="M213.5,3.3l-8,0l0,-3.3l20.2,0l0,3.3l-8,0l0,50.3l8,0l0,3.4l-20.2,0l0,-3.3l8,0l0,-50.4Z" style="fill:#fff;fill-rule:nonzero;"/><path d="M228.2,53.6l6.4,0l0,-34.3l-6.4,0l0,-3.3l10.7,0l0,6.4l0.2,0c2.1,-4.9 6.1,-7.6 12,-7.6c8.7,0 12.3,4.9 12.3,15.2l0,23.6l5.9,0l0,3.4l-17,0l0,-3.3l6.8,0l0,-23.7c0,-8.1 -3.1,-11.9 -9.4,-11.9c-6.4,0 -10.8,5.9 -10.8,15.4l0,20.1l6.4,0l0,3.4l-17,0l0,-3.4l-0.1,0Z" style="fill:#fff;fill-rule:nonzero;"/><path d="M303,3.3l-6.8,0l0,-3.3l11.1,0l0,53.6l5.5,0l0,3.4l-9.8,0l0,-7l-0.2,0c-3.3,6 -7.2,8.1 -13.4,8.1c-6.6,0 -16.2,-4.1 -16.2,-21.6c0,-12.6 5.8,-21.6 16.2,-21.6c6.1,0 10.7,2.5 13.4,8l0.2,0l0,-19.6Zm-12.3,51.5c9.5,0 12.7,-9.5 12.7,-19c0,-13.7 -7.2,-17.6 -12.7,-17.6c-8.8,0 -13.3,8.2 -13.3,18.3c0,10.1 4.5,18.3 13.3,18.3Z" style="fill:#fff;fill-rule:nonzero;"/><path d="M320.9,37.2c0.2,10.7 4.9,17.5 13.3,17.5c6.1,0 10.8,-2.8 12,-10l3.8,0c-1.5,9 -7.5,13.4 -15.8,13.4c-12,0 -17.6,-9.1 -17.6,-21.6c0,-12.6 5.6,-21.6 17.6,-21.6c12.1,0 16.6,10.9 16.6,22.4l-29.9,0l0,-0.1Zm25.6,-3.3c-0.2,-9.8 -4.7,-15.8 -12.9,-15.8c-7.2,0 -11.9,6.4 -12.7,15.8l25.6,0Z" style="fill:#fff;fill-rule:nonzero;"/><path d="M353.8,53.6l3.6,0l13.1,-17.8l-12.1,-16.6l-3.5,0l0,-3.3l14,0l0,3.3l-5.7,0l9.9,13.7l10.1,-13.7l-5.1,0l0,-3.3l14,0l0,3.3l-4.1,0l-12.3,16.6l13.1,17.8l3.6,0l0,3.4l-14,0l0,-3.3l5.6,0l-11,-15l-11,15l5.7,0l0,3.3l-14,0l0,-3.4l0.1,0Z" style="fill:#fff;fill-rule:nonzero;"/><path d="M203.6,74.1l18.3,0l0,3.3l-8.5,0l16.9,48.9l0.2,0l16.9,-48.9l-8.5,0l0,-3.3l18.3,0l0,3.3l-5,0l-19.2,53.7l-5.3,0l-19.1,-53.6l-5,0l0,-3.4Z" style="fill:#fff;fill-rule:nonzero;"/><path d="M259,111.3c0.2,10.7 4.9,17.5 13.3,17.5c6.1,0 10.8,-2.8 12,-10l3.8,0c-1.5,9 -7.5,13.4 -15.8,13.4c-12,0 -17.6,-9.1 -17.6,-21.6c0,-12.5 5.6,-21.6 17.6,-21.6c12.1,0 16.6,10.9 16.6,22.4l-29.9,0l0,-0.1Zm25.7,-3.3c-0.2,-9.8 -4.7,-15.8 -12.9,-15.8c-7.2,0 -11.9,6.4 -12.7,15.8l25.6,0Z" style="fill:#fff;fill-rule:nonzero;"/><path d="M292.3,127.7l6.4,0l0,-34.3l-6.4,0l0,-3.4l10.7,0l0,6.4l0.2,0c2.1,-4.9 6.1,-7.6 12,-7.6c8.7,0 12.3,4.9 12.3,15.2l0,23.6l5.9,0l0,3.3l-17,0l0,-3.3l6.8,0l0,-23.6c0,-8.1 -3.1,-11.9 -9.4,-11.9c-6.4,0 -10.8,5.9 -10.8,15.4l0,20.1l6.4,0l0,3.3l-17,0l0,-3.2l-0.1,0Z" style="fill:#fff;fill-rule:nonzero;"/><path d="M342.1,81.3l4.3,-1.6l0,10.3l11.1,0l0,3.3l-11.1,0l0,28.7c0,5 2,6.8 4.1,6.8c3.3,0 4.9,-2.8 4.9,-7.9l0,-0.9l3.3,0l0,1.5c0,6.3 -3.2,10.6 -8.7,10.6c-5.6,0 -8,-3.2 -8,-9.2l0,-29.5l-7.3,0l0,-3.4l7.3,0l0,-8.7l0.1,0Z" style="fill:#fff;fill-rule:nonzero;"/><path d="M361.5,90l10.2,0l0,27c0,8.1 3.1,11.9 9.4,11.9c6.1,0 10.8,-5.6 10.8,-15l0,-20.5l-6.4,0l0,-3.4l10.7,0l0,37.7l6.4,0l0,3.3l-10.7,0l0,-6.7l-0.2,0c-2.1,4.9 -6.5,7.8 -12,7.8c-8.7,0 -12.3,-4.9 -12.3,-15.2l0,-23.5l-5.9,0l0,-3.4Z" style="fill:#fff;fill-rule:nonzero;"/><path d="M404.9,127.7l6.4,0l0,-34.3l-6.4,0l0,-3.4l10.7,0l0,7.3l0.2,0c1.7,-5.5 5.9,-8.4 10.7,-8.4c1,0 1.8,0.1 2.2,0.2l0,3.9c-0.4,-0.2 -1.3,-0.2 -1.9,-0.2c-7.6,0 -11.2,6.3 -11.2,15l0,20.1l7.8,0l0,3.3l-18.5,0l0,-3.5Z" style="fill:#fff;fill-rule:nonzero;"/><path d="M436.3,111.3c0.2,10.7 4.9,17.5 13.3,17.5c6.1,0 10.8,-2.8 12,-10l3.8,0c-1.5,9 -7.5,13.4 -15.8,13.4c-12,0 -17.6,-9.1 -17.6,-21.6c0,-12.5 5.6,-21.6 17.6,-21.6c12.1,0 16.6,10.9 16.6,22.4l-29.9,0l0,-0.1Zm25.7,-3.3c-0.2,-9.8 -4.7,-15.8 -12.9,-15.8c-7.2,0 -11.9,6.4 -12.7,15.8l25.6,0Z" style="fill:#fff;fill-rule:nonzero;"/><path d="M471.4,116.7l3.3,0c0.3,8.2 4.9,12.2 11,12.2c6.1,0 10,-3.3 10,-8.9c0,-4.9 -2.2,-6.6 -8.8,-7.6l-5.2,-0.8c-6.4,-1.1 -9.9,-4.1 -9.9,-9.8c0,-8.3 6.3,-12.8 13.2,-12.8c5.1,0 8.9,1.8 10.9,6l0.2,0l0,-5l3.3,0l0,14.1l-3.4,0l0,-2.2c0,-6.2 -4.5,-9.6 -10.4,-9.6c-5.9,0 -9.5,3.7 -9.5,8.9c0,4.3 3.2,6 7.2,6.6l6,1c7.6,1.2 10.7,4.6 10.7,10.8c0,8.4 -5.5,12.7 -14.2,12.7c-5.4,0 -9.2,-2 -11.1,-6.6l0.1,0l-0.2,0l0,5.5l-3.3,0l0,-14.5l0.1,0Z" style="fill:#fff;fill-rule:nonzero;"/></g></svg>