<?xml version="1.0" encoding="utf-8"?>
<!-- Generator: Adobe Illustrator 23.0.6, SVG Export Plug-In . SVG Version: 6.00 Build 0)  -->
<svg version="1.1" id="Layer_1" xmlns="http://www.w3.org/2000/svg" xmlns:xlink="http://www.w3.org/1999/xlink" x="0px" y="0px"
	 viewBox="0 0 500 132.2" style="enable-background:new 0 0 500 132.2;" xml:space="preserve">
<g>
	<g>
		<rect width="72.8" height="14.6"/>
		<rect x="43.7" y="29.1" width="101.9" height="14.6"/>
		<rect x="43.7" y="58.3" width="116.5" height="14.6"/>
		<rect x="43.7" y="87.4" width="101.9" height="14.6"/>
		<rect x="43.7" y="116.5" width="72.8" height="14.6"/>
	</g>
	<g>
		<path d="M213.5,3.3h-8V0h20.2v3.3h-8v50.3h8V57h-20.2v-3.3h8V3.3z"/>
		<path d="M228.2,53.6h6.4V19.3h-6.4v-3.3h10.7v6.4h0.2c2.1-4.9,6.1-7.6,12-7.6c8.7,0,12.3,4.9,12.3,15.2v23.6h5.9V57h-17v-3.3h6.8
			V30c0-8.1-3.1-11.9-9.4-11.9c-6.4,0-10.8,5.9-10.8,15.4v20.1h6.4V57h-17V53.6z"/>
		<path d="M303,3.3h-6.8V0h11.1v53.6h5.5V57H303v-7h-0.2c-3.3,6-7.2,8.1-13.4,8.1c-6.6,0-16.2-4.1-16.2-21.6
			c0-12.6,5.8-21.6,16.2-21.6c6.1,0,10.7,2.5,13.4,8h0.2V3.3z M290.7,54.8c9.5,0,12.7-9.5,12.7-19c0-13.7-7.2-17.6-12.7-17.6
			c-8.8,0-13.3,8.2-13.3,18.3C277.4,46.6,281.9,54.8,290.7,54.8z"/>
		<path d="M320.9,37.2c0.2,10.7,4.9,17.5,13.3,17.5c6.1,0,10.8-2.8,12-10h3.8c-1.5,9-7.5,13.4-15.8,13.4c-12,0-17.6-9.1-17.6-21.6
			c0-12.6,5.6-21.6,17.6-21.6c12.1,0,16.6,10.9,16.6,22.4H320.9z M346.5,33.9c-0.2-9.8-4.7-15.8-12.9-15.8
			c-7.2,0-11.9,6.4-12.7,15.8H346.5z"/>
		<path d="M353.8,53.6h3.6l13.1-17.8l-12.1-16.6h-3.5v-3.3h14v3.3h-5.7l9.9,13.7l10.1-13.7h-5.1v-3.3h14v3.3H388l-12.3,16.6
			l13.1,17.8h3.6V57h-14v-3.3h5.6l-11-15l-11,15h5.7V57h-14V53.6z"/>
		<path d="M203.6,74.1h18.3v3.3h-8.5l16.9,48.9h0.2l16.9-48.9h-8.5v-3.3h18.3v3.3h-5L233,131.1h-5.3l-19.1-53.6h-5V74.1z"/>
		<path d="M259,111.3c0.2,10.7,4.9,17.5,13.3,17.5c6.1,0,10.8-2.8,12-10h3.8c-1.5,9-7.5,13.4-15.8,13.4c-12,0-17.6-9.1-17.6-21.6
			s5.6-21.6,17.6-21.6c12.1,0,16.6,10.9,16.6,22.4H259z M284.7,108c-0.2-9.8-4.7-15.8-12.9-15.8c-7.2,0-11.9,6.4-12.7,15.8H284.7z"
			/>
		<path d="M292.3,127.7h6.4V93.4h-6.4V90H303v6.4h0.2c2.1-4.9,6.1-7.6,12-7.6c8.7,0,12.3,4.9,12.3,15.2v23.6h5.9v3.3h-17v-3.3h6.8
			v-23.6c0-8.1-3.1-11.9-9.4-11.9c-6.4,0-10.8,5.9-10.8,15.4v20.1h6.4v3.3h-17V127.7z"/>
		<path d="M342.1,81.3l4.3-1.6V90h11.1v3.3h-11.1v28.7c0,5,2,6.8,4.1,6.8c3.3,0,4.9-2.8,4.9-7.9v-0.9h3.3v1.5
			c0,6.3-3.2,10.6-8.7,10.6c-5.6,0-8-3.2-8-9.2V93.4h-7.3V90h7.3V81.3z"/>
		<path d="M361.5,90h10.2v27c0,8.1,3.1,11.9,9.4,11.9c6.1,0,10.8-5.6,10.8-15V93.4h-6.4V90h10.7v37.7h6.4v3.3h-10.7v-6.7h-0.2
			c-2.1,4.9-6.5,7.8-12,7.8c-8.7,0-12.3-4.9-12.3-15.2V93.4h-5.9V90z"/>
		<path d="M404.9,127.7h6.4V93.4h-6.4V90h10.7v7.3h0.2c1.7-5.5,5.9-8.4,10.7-8.4c1,0,1.8,0.1,2.2,0.2V93c-0.4-0.2-1.3-0.2-1.9-0.2
			c-7.6,0-11.2,6.3-11.2,15v20.1h7.8v3.3h-18.5V127.7z"/>
		<path d="M436.3,111.3c0.2,10.7,4.9,17.5,13.3,17.5c6.1,0,10.8-2.8,12-10h3.8c-1.5,9-7.5,13.4-15.8,13.4c-12,0-17.6-9.1-17.6-21.6
			s5.6-21.6,17.6-21.6c12.1,0,16.6,10.9,16.6,22.4H436.3z M462,108c-0.2-9.8-4.7-15.8-12.9-15.8c-7.2,0-11.9,6.4-12.7,15.8H462z"/>
		<path d="M471.4,116.7h3.3c0.3,8.2,4.9,12.2,11,12.2c6.1,0,10-3.3,10-8.9c0-4.9-2.2-6.6-8.8-7.6l-5.2-0.8c-6.4-1.1-9.9-4.1-9.9-9.8
			c0-8.3,6.3-12.8,13.2-12.8c5.1,0,8.9,1.8,10.9,6h0.2V90h3.3v14.1H496v-2.2c0-6.2-4.5-9.6-10.4-9.6c-5.9,0-9.5,3.7-9.5,8.9
			c0,4.3,3.2,6,7.2,6.6l6,1c7.6,1.2,10.7,4.6,10.7,10.8c0,8.4-5.5,12.7-14.2,12.7c-5.4,0-9.2-2-11.1-6.6h0.1h-0.2v5.5h-3.3V116.7z"
			/>
	</g>
</g>
</svg>
