<?xml version="1.0" encoding="UTF-8" standalone="no"?>
<!DOCTYPE svg PUBLIC "-//W3C//DTD SVG 1.1//EN" "http://www.w3.org/Graphics/SVG/1.1/DTD/svg11.dtd">
<svg width="100%" height="100%" viewBox="0 0 400 400" version="1.1" xmlns="http://www.w3.org/2000/svg" xmlns:xlink="http://www.w3.org/1999/xlink" xml:space="preserve" xmlns:serif="http://www.serif.com/" style="fill-rule:evenodd;clip-rule:evenodd;stroke-linejoin:round;stroke-miterlimit:2;">
    <g>
        <path id="Dark_Blue" d="M200,0C310.383,0 400,89.617 400,200C400,310.383 310.383,400 200,400C89.617,400 0,310.383 0,200C0,89.617 89.617,0 200,0ZM200,80C167.4,80 163.3,80.1 150.5,80.7C137.7,81.3 129,83.3 121.4,86.3C113.5,89.4 106.8,93.5 100.1,100.1C93.4,106.8 89.3,113.5 86.3,121.4C83.3,129 81.3,137.8 80.7,150.5C80.1,163.3 80,167.4 80,200C80,232.6 80.1,236.7 80.7,249.5C81.3,262.3 83.3,271 86.3,278.6C89.4,286.5 93.5,293.2 100.1,299.9C106.8,306.6 113.5,310.7 121.4,313.7C129,316.7 137.8,318.7 150.5,319.3C163.3,319.9 167.4,320 200,320C232.6,320 236.7,319.9 249.5,319.3C262.3,318.7 271,316.7 278.6,313.7C286.5,310.6 293.2,306.5 299.9,299.9C306.6,293.2 310.7,286.5 313.7,278.6C316.7,271 318.7,262.2 319.3,249.5C319.9,236.7 320,232.6 320,200C320,167.4 319.9,163.3 319.3,150.5C318.7,137.7 316.7,129 313.7,121.4C310.6,113.5 306.5,106.8 299.9,100.1C293.2,93.4 286.5,89.3 278.6,86.3C271,83.3 262.2,81.3 249.5,80.7C236.7,80.1 232.6,80 200,80ZM200,101.6C232,101.6 235.8,101.7 248.5,102.3C260.2,102.8 266.6,104.8 270.8,106.4C276.4,108.6 280.4,111.2 284.6,115.4C288.8,119.6 291.4,123.6 293.6,129.2C295.2,133.4 297.2,139.8 297.7,151.5C298.3,164.2 298.4,167.9 298.4,200C298.4,232.1 298.3,235.8 297.7,248.5C297.2,260.2 295.2,266.6 293.6,270.8C291.4,276.4 288.8,280.4 284.6,284.6C280.4,288.8 276.4,291.4 270.8,293.6C266.6,295.2 260.2,297.2 248.5,297.7C235.8,298.3 232.1,298.4 200,298.4C167.9,298.4 164.2,298.3 151.5,297.7C139.8,297.2 133.4,295.2 129.2,293.6C123.6,291.4 119.6,288.8 115.4,284.6C111.2,280.4 108.6,276.4 106.4,270.8C104.8,266.6 102.8,260.2 102.3,248.5C101.7,235.8 101.6,232.1 101.6,200C101.6,167.9 101.7,164.2 102.3,151.5C102.8,139.8 104.8,133.4 106.4,129.2C108.6,123.6 111.2,119.6 115.4,115.4C119.6,111.2 123.6,108.6 129.2,106.4C133.4,104.8 139.8,102.8 151.5,102.3C164.2,101.7 168,101.6 200,101.6ZM200,138.4C166,138.4 138.4,166 138.4,200C138.4,234 166,261.6 200,261.6C234,261.6 261.6,234 261.6,200C261.6,166 234,138.4 200,138.4ZM200,240C177.9,240 160,222.1 160,200C160,177.9 177.9,160 200,160C222.1,160 240,177.9 240,200C240,222.1 222.1,240 200,240ZM264.1,121.5C272.048,121.5 278.5,127.952 278.5,135.9C278.5,143.848 272.048,150.3 264.1,150.3C256.152,150.3 249.7,143.848 249.7,135.9C249.7,127.952 256.152,121.5 264.1,121.5Z"/>
    </g>
</svg>
