<?xml version="1.0" encoding="UTF-8" standalone="no"?>
<!DOCTYPE svg PUBLIC "-//W3C//DTD SVG 1.1//EN" "http://www.w3.org/Graphics/SVG/1.1/DTD/svg11.dtd">
<svg width="100%" height="100%" viewBox="0 0 400 400" version="1.1" xmlns="http://www.w3.org/2000/svg" xmlns:xlink="http://www.w3.org/1999/xlink" xml:space="preserve" xmlns:serif="http://www.serif.com/" style="fill-rule:evenodd;clip-rule:evenodd;stroke-linejoin:round;stroke-miterlimit:2;">
    <path id="Dark_Blue" d="M200,0C310.383,0 400,89.617 400,200C400,310.383 310.383,400 200,400C89.617,400 0,310.383 0,200C0,89.617 89.617,0 200,0ZM137.7,155.9L87.1,155.9L87.1,307.9L137.7,307.9L137.7,155.9ZM165.5,155.9C166.3,170.105 165.6,307.9 165.6,307.9L216.1,307.9L216.1,223C216.1,218.5 216.4,213.9 217.8,210.7C221.5,201.6 229.8,192.2 243.7,192.2C262,192.2 269.3,206.1 269.3,226.6L269.3,307.9L319.8,307.9L319.8,220.7C319.8,174 294.9,152.3 261.6,152.3C234.703,152.3 222.755,167.055 216,177.437L216,177.9L215.7,177.9L216,177.437L216,155.9L165.5,155.9ZM112.4,135.1C130,135.1 141,123.4 141,108.8C140.7,93.9 130,82.5 112.7,82.5C95.4,82.5 84.1,93.8 84.1,108.8C84.1,123.4 95.1,135.1 112,135.1L112.4,135.1Z"/>
</svg>
