<?xml version="1.0" encoding="UTF-8" standalone="no"?>
<!DOCTYPE svg PUBLIC "-//W3C//DTD SVG 1.1//EN" "http://www.w3.org/Graphics/SVG/1.1/DTD/svg11.dtd">
<svg width="100%" height="100%" viewBox="0 0 400 400" version="1.1" xmlns="http://www.w3.org/2000/svg" xmlns:xlink="http://www.w3.org/1999/xlink" xml:space="preserve" xmlns:serif="http://www.serif.com/" style="fill-rule:evenodd;clip-rule:evenodd;stroke-linejoin:round;stroke-miterlimit:2;">
    <path id="Dark_Blue" d="M200,0C310.383,0 400,89.617 400,200C400,310.383 310.383,400 200,400C89.617,400 0,310.383 0,200C0,89.617 89.617,0 200,0ZM315.3,290.8L315.3,286.8L297,268.8C295.4,267.5 294.6,265.5 294.9,263.5L294.9,131.3C294.6,129.3 295.4,127.2 297,126L315.8,108L315.8,104L250.8,104L204.4,219.6L151.7,104L83.5,104L83.5,108L105.5,134.4C107.7,136.4 108.8,139.2 108.5,142.1L108.5,246C109.1,249.7 107.9,253.6 105.3,256.3L80.6,286.3L80.6,290.3L150.6,290.3L150.6,286.3L125.9,256.3C123.2,253.6 122,249.8 122.5,246L122.5,156.1L184,290.2L191.2,290.2L244,156.1L244,263.1C244,266 244,266.5 242.1,268.4L223.1,286.8L223.1,290.8L315.3,290.8Z"/>
</svg>
