<?xml version="1.0" encoding="utf-8"?>
<!-- Generator: Adobe Illustrator 23.0.6, SVG Export Plug-In . SVG Version: 6.00 Build 0)  -->
<svg version="1.1" id="Layer_1" xmlns="http://www.w3.org/2000/svg" xmlns:xlink="http://www.w3.org/1999/xlink" x="0px" y="0px"
	 viewBox="0 0 250 101.2" style="enable-background:new 0 0 250 101.2;" xml:space="preserve">
<style type="text/css">
	.st0{fill-rule:evenodd;clip-rule:evenodd;}
</style>
<path class="st0" d="M0,0v101.2h250V0H0z M56.2,91.2l-17-56.4h-0.2L27.6,91.2H7.1L24.4,9.8h27.2l16.7,56.5h0.2L80,9.8h20.5
	L83.3,91.2H56.2z M139.2,91.2l7.2-34.9h-25.8l-7.2,34.9H91.6l16.9-81.4h21.8L124,40.9h25.8l6.4-31.2H178l-16.9,81.4H139.2z
	 M235.4,28.2c-4.2-2-9.9-3.7-18-3.7c-8.6,0-15.6,1.3-15.6,7.8c0,11.5,31.6,7.2,31.6,32c0,22.5-20.9,28.4-39.8,28.4
	c-8.4,0-18.1-2-25.2-4.2l5.1-16.6c4.3,2.8,13,4.7,20.1,4.7c6.8,0,17.4-1.3,17.4-9.7c0-13.1-31.6-8.2-31.6-31.1
	c0-21,18.4-27.3,36.3-27.3c10,0,19.5,1.1,25,3.6L235.4,28.2z"/>
</svg>
