<?xml version="1.0" encoding="UTF-8" standalone="no"?>
<!DOCTYPE svg PUBLIC "-//W3C//DTD SVG 1.1//EN" "http://www.w3.org/Graphics/SVG/1.1/DTD/svg11.dtd">
<svg width="100%" height="100%" viewBox="0 0 320 66" version="1.1" xmlns="http://www.w3.org/2000/svg" xmlns:xlink="http://www.w3.org/1999/xlink" xml:space="preserve" xmlns:serif="http://www.serif.com/" style="fill-rule:evenodd;clip-rule:evenodd;stroke-linejoin:round;stroke-miterlimit:2;">
    <g>
        <path d="M117.8,0L97.3,65.9L115.5,65.9L126.9,29.3L134,29.3L147,65.9L166.2,65.9L153.3,29.3L147,29.3L176.7,0L156,0L127,28.7L136,0L117.8,0Z" style="fill:white;"/>
        <path d="M180.9,0L160.4,65.9L178.6,65.9L190,29.3L197.1,29.3L210.1,65.9L229.3,65.9L216.3,29.3L210.1,29.3L239.8,0L219,0L190.1,28.7L199.1,0L180.9,0Z" style="fill:white;"/>
        <path d="M69.3,65.9L87.5,65.9L108,0L89.8,0L69.3,65.9Z" style="fill:white;"/>
        <path d="M281.3,65.9L299.5,65.9L320,0L301.8,0L281.3,65.9Z" style="fill:white;"/>
        <path d="M223.7,65.9L271.9,65.9L275.5,54.2L245.5,54.2L250.6,37.9L278.5,37.9L282.1,26.2L254.2,26.2L258.9,11.2L288.7,11.2L292.4,0L244.2,0L223.7,65.9Z" style="fill:white;"/>
        <path d="M79.9,0L64.9,0L50.7,45.5L42,0L20.5,0L0,65.9L15.2,65.9L29.8,18L39.1,65.9L59.4,65.9L79.9,0Z" style="fill:white;"/>
        <path d="M311.5,58.2C313.4,58.2 314.8,59.7 314.8,61.6C314.8,63.6 313.3,65 311.5,65C309.6,65 308.1,63.5 308.1,61.6C308.2,59.6 309.7,58.2 311.5,58.2L311.5,57.5C309.2,57.5 307.3,59.2 307.3,61.6C307.3,64 309.2,65.7 311.5,65.7C313.7,65.7 315.7,64 315.7,61.6C315.7,59.2 313.8,57.5 311.5,57.5L311.5,58.2Z" style="fill:white;"/>
        <path d="M310.7,59.8L311.7,59.8C312.2,59.8 312.7,59.9 312.7,60.5C312.7,61.2 312.2,61.3 311.5,61.3L310.6,61.3L310.6,61.9L311.4,61.9L312.7,64L313.5,64L312.1,61.9C312.8,61.8 313.3,61.4 313.3,60.6C313.3,59.7 312.7,59.2 311.6,59.2L310,59.2L310,64L310.7,64L310.7,59.8Z" style="fill:white;"/>
    </g>
</svg>
