<?xml version="1.0" encoding="utf-8"?>
<!-- Generator: Adobe Illustrator 23.0.6, SVG Export Plug-In . SVG Version: 6.00 Build 0)  -->
<svg version="1.1" id="Layer_1" xmlns="http://www.w3.org/2000/svg" xmlns:xlink="http://www.w3.org/1999/xlink" x="0px" y="0px"
	 viewBox="0 0 700 111.7" style="enable-background:new 0 0 700 111.7;" xml:space="preserve">
<path d="M35.5,47c9.2-2.2,19-9.1,19-24.2C54.6,11.9,48.4,0,25.9,0H0v83.7h9.3V47.9h16.4l20.6,35.9h11.5L35.5,47z M9.3,38.6v-31h16.1
	c9.7,0,19.1,3.3,19.1,15.7c0,10-7.5,15.3-18.5,15.3H9.3z"/>
<polygon points="101.3,0 148.5,0 148.5,8.5 110.6,8.5 110.6,36.5 147.4,36.5 147.4,45 110.6,45 110.6,75.3 148.5,75.3 148.5,83.7 
	101.3,83.7 "/>
<path d="M223.3,0h-26v83.7h29.6c26.7,0,39.7-21.4,39.7-42.3C266.7,21.8,256.6,0,223.3,0 M225.1,75.3h-18.4V8.5h16
	c25,0,33.9,16,33.9,32.9C256.6,58.5,246.5,75.3,225.1,75.3"/>
<path d="M352.5,40.3v-0.2c11.1-2.2,13.6-11.2,13.6-20.5C366.1,9.2,358,0,343.3,0h-26.9v83.7h27.7c14.9,0,25.1-10.5,25.1-23
	C369.2,47.2,361.5,41,352.5,40.3 M325.7,7.8H340c9.6,0,16,3.1,16,14.1c0,9.8-6.1,15.2-16.4,15.2h-13.9V7.8z M343.3,75.3h-17.5V45
	h15.4c14,0,18.7,8.5,18.7,15C359.8,68.3,354,75.3,343.3,75.3"/>
<path d="M417.7,0h9.3v54.6c0,15.2,8.6,22.3,21.4,22.3c11.8,0,21.5-7.1,21.5-24.2V0h9.3v52.8c0,21.9-13.7,32.5-30.8,32.5
	c-20.4,0-30.7-11.9-30.7-29.3V0z"/>
<path d="M566.9,47c9.3-2.2,19.1-9.1,19.1-24.2C586,11.9,579.8,0,557.4,0h-26v83.7h9.3V47.9h16.4l20.7,35.9h11.4L566.9,47z
	 M540.7,39.4v-31h16.2c9.7,0,19,3.3,19,15.7c0,10-7.5,15.3-18.5,15.3H540.7z"/>
<polygon points="633.1,0 643.3,0 690.4,69 690.7,69 690.7,0 700,0 700,83.7 689.9,83.7 642.7,14.7 642.6,14.7 642.6,83.7 
	633.1,83.7 "/>
<rect y="102.3" width="700" height="9.3"/>
</svg>
