<?xml version="1.0" encoding="UTF-8" standalone="no"?>
<!DOCTYPE svg PUBLIC "-//W3C//DTD SVG 1.1//EN" "http://www.w3.org/Graphics/SVG/1.1/DTD/svg11.dtd">
<svg width="100%" height="100%" viewBox="0 0 500 486" version="1.1" xmlns="http://www.w3.org/2000/svg" xmlns:xlink="http://www.w3.org/1999/xlink" xml:space="preserve" xmlns:serif="http://www.serif.com/" style="fill-rule:evenodd;clip-rule:evenodd;stroke-linejoin:round;stroke-miterlimit:2;">
    <g id="Vector_Logo">
        <path d="M262.1,0C259.7,0.2 250.7,4.4 249.5,9C255,13.3 262.9,15.5 270.1,19.8L252.6,19.8C233.9,20 228.2,29.9 222.8,50.8C221.5,48.9 209.8,30.3 204.5,30.3C201.6,30.3 188.7,36 180,38C185.8,31.6 193.8,24.8 199.3,18.3C197.1,15.2 195.9,11.7 194.8,7.7C198.7,7.5 202.3,8.9 218,6.3C233.5,3.7 247.8,0.6 262.1,0Z" style="fill:white;"/>
        <path d="M312.7,20C318.8,26.9 324,36.7 330.4,44.6C337.9,53.8 346.6,61 353.3,70C349.2,69.1 344.7,67.9 339.3,66.8C338.4,67.8 338.6,68 338.6,70.8C338.6,73.7 339.7,81 340.5,94.2C334.1,84.8 327.3,74.6 319.6,64.5C309.6,65.7 299.4,66.8 288.6,68.9C293.1,60.3 304.5,48.6 304.5,45.7C304.5,39.4 281.8,26 278.3,21.4C289.2,23.4 299.6,25.7 309.5,30.3C311.5,27.7 312.5,22.3 312.7,20Z" style="fill:white;"/>
        <path d="M168.4,25.8C166.3,31.1 164,36.8 161.7,40.9C164.8,41.7 169.2,41.7 174.3,42.1C157.7,51.3 148.8,69.5 151.2,83.8C147.1,80.3 144.7,76.8 142.9,73.6C139.9,76.9 136.6,81.3 132.5,87.3C135.2,66.4 145.5,44.2 168.4,25.8Z" style="fill:white;"/>
        <path d="M223.8,53.1C231.3,62.4 238.1,72.7 245.8,81.6L283.8,71.5C278.1,81.3 262.2,100.9 262.2,103.8C262.2,106.7 279.2,123.9 288.4,133.7C274.1,132.9 260.4,129.4 247,126C240.4,136.1 233.6,146.3 226.1,156.8C223.4,144.9 222.2,132.3 220.7,120C212.3,114.3 198.9,110.8 187.9,106C198.5,99.8 209.9,95.2 219.5,89.7C221.1,78.7 222.2,66.2 223.8,53.1Z" style="fill:white;"/>
        <path d="M151,88.5C155.5,116.8 150.2,107.9 168.2,108.1L181.2,108.1C174.2,114.6 159.5,129.6 159.5,132.4C159.5,135.3 166.3,147.1 168.4,155.7C162.1,152.3 153.8,146.7 150.9,146.7C146.6,146.7 143.3,160.2 140.5,162.7C134.9,148.6 143.2,135.2 128.6,121.1C140.5,108.9 143.4,100.6 151,88.5Z" style="fill:white;"/>
        <path d="M342.7,102.2C344.3,110.7 344.3,119.8 345.4,128.8L347.3,130.8C350.3,128.6 354.8,125.2 360,121.7C357.9,134 351.3,140.5 346.4,151.1C343.3,157.9 342,168.8 339.4,176.3C335.5,175.2 333.1,171.7 330,169.5C321.2,174 310.9,177.4 301.1,181.9C305.6,174.4 309,166.4 313.5,159.9C306.8,152.2 297.6,145.4 291.9,136.8C297,136.5 305,137.6 307.8,137.6C334,137.5 328.8,133.6 342.7,102.2Z" style="fill:white;"/>
        <path d="M224.1,160.4C224.4,166.6 222.2,187.7 222.2,190.6C222.2,199.3 239,204.2 242.7,205.5C236.4,206 229.6,207.2 223.1,207C223.3,207.7 222.1,207.2 222.1,210C222.1,212.8 223.2,219 224.2,224.1C216.2,219.9 204.9,210.3 193.9,205C186.2,201.4 169.8,198.5 162.8,191.5C170.1,190 176.9,188.8 183.4,186.9C180,179.4 175.4,171.3 173.3,162.7C182,168.4 189.9,174.1 197.7,179.7C204.4,176.7 214.7,168.6 224.1,160.4Z" style="fill:white;"/>
        <path d="M298.5,185.5L298.5,202.9C299.7,203.9 299.3,203.7 302.1,203.7C304.9,203.7 315,199.2 322.6,197.1C299.3,216.2 272.6,226 247.4,227.2C250,225.4 255.6,222 261.1,219C257.8,214.9 252.1,211.5 248.6,207.3L278.6,207.3C285.1,200.5 292,192.5 298.5,185.5Z" style="fill:white;"/>
        <path d="M42.1,367.4L41.4,357.5C37.1,355.1 31.2,353.3 25.6,353.3C10.9,353.3 0,363 0,379.9C0,396.4 10.4,405.5 25.5,405.5C30.2,405.5 37.3,404.5 43.4,400.8L44.1,389.3L41.8,389.3C40.2,395.3 34.5,401 27,401C21.4,401 12.5,397.9 12.5,380.6C12.5,363.8 20.2,357.6 27.3,357.6C31.5,357.6 36.4,359.8 39.7,367.4L42.1,367.4Z" style="fill:white;"/>
        <path d="M61.3,396.9C61.3,400 59.8,400.7 57.1,400.7L56.1,400.7L56.1,404.3L78,404.3L78,400.7L77.1,400.7C74.2,400.7 72.9,400 72.9,396.9L72.9,378.8L91.7,378.8L91.7,396.9C91.7,398.7 91.7,400.7 87.6,400.7L86.6,400.7L86.6,404.3L108.5,404.3L108.5,400.7L107.6,400.7C103.4,400.7 103.4,398.7 103.4,396.9L103.4,361.7C103.4,359.6 103.3,357.7 108.5,357.9L108.5,354.3L86.6,354.3L86.6,357.9L87.6,357.9C91.7,357.9 91.7,359.9 91.7,361.7L91.7,374.4L73,374.4L73,361.7C73,358.6 74.2,357.9 77.2,357.9L78.1,357.9L78.1,354.3L56.2,354.3L56.2,357.9L57.2,357.9C59.9,357.9 61.4,358.6 61.4,361.5L61.4,396.9L61.3,396.9Z" style="fill:white;"/>
        <path d="M145.8,353.3L142.8,353.3C138.8,356.7 137.3,357.4 132.9,357.6L132.9,359.9L133.7,359.9C136.2,359.9 136.3,360.8 136.3,361.6C136.3,362.6 135.9,363.5 135.4,364.7L124.1,394.6C123,397.5 122.6,400.4 116.7,400.7L116.7,404.3L131.4,404.3L131.4,400.7L129.6,400.7C128.9,400.7 128,400.6 127.8,400.1C127.7,400 127.8,399.7 127.8,399.6C127.9,399 128.5,397.3 128.6,397L131.4,389.2L149.1,389.2L152.2,398.1C152.6,399.1 152.6,399.4 152.6,399.5L152.6,400C152.5,400.8 151.9,400.7 151.4,400.7L149,400.7L149,404.3L168,404.3L168,400.7C167.5,400.7 166.5,400.7 166,400.6C162.9,400 161.3,395.1 160.6,393.3L145.8,353.3ZM139.8,366.6L140.7,366.6L147.3,384.8L133.1,384.8L139.8,366.6Z" style="fill:white;"/>
        <path d="M197.5,354.3L179.8,354.3L179.8,357.9L181,357.9C184.4,357.9 185.2,358.8 185.2,359.7C185.2,360.5 184.8,362.9 184.6,364.4L180.2,395.3C179.8,398.3 179.2,400.6 175.3,400.6L173.5,400.6L173.5,404.2L189.1,404.2L189.1,400.6L187.1,400.6C185.1,400.6 184.2,400 184.2,398.3C184.2,398 184.3,397.7 184.3,397.1C184.3,396.9 184.4,396.7 184.4,396.6C184.5,396.2 184.5,395.7 184.5,395.3L188.6,366.2L189.3,366.2L201.3,403.3L206.7,403.3L219,366.2L219.8,366.2L224.5,398.1C224.6,398.8 224.7,399.6 224.1,400.2C223.7,400.6 222.6,400.7 220.4,400.6L220.4,404.2L241.4,404.2L241.4,400.6L240.4,400.6C238.4,400.6 236.5,401.1 235.8,396.1L230.6,360.8C230.5,359.6 230.3,357.8 233.1,357.8L234.9,357.8L234.9,354.2L219,354.2L208.3,386L207.6,386L197.5,354.3Z" style="fill:white;"/>
        <path d="M267.9,385.4L272.2,385.4C291,385.4 295.3,377.7 295.3,370.4C295.3,363.4 290,353.6 273.2,354.3L250.6,354.3L250.6,357.9L252,357.9C254.7,357.9 256.2,358.6 256.2,361.7L256.2,396.9C256.2,400 254.7,400.7 252,400.7L250.6,400.7L250.6,404.3L274.5,404.3L274.5,400.7L272,400.7C269.1,400.7 267.8,400 267.8,396.9L267.8,385.4L267.9,385.4ZM267.9,381L267.9,362.5C267.9,359.5 269,358.7 272.4,358.7C276.6,358.7 282.8,360.4 282.8,369.6C282.8,374.9 280.1,381 270.6,381L267.9,381Z" style="fill:white;"/>
        <path d="M305.7,400.7L305.7,404.3L328.6,404.3L328.6,400.7L327.1,400.7C322.9,400.7 322.9,398.7 322.9,396.9L322.9,361.7C322.9,359.9 322.8,357.9 327.1,357.9L328.6,357.9L328.6,354.3L305.8,354.3L305.8,357.9L307.3,357.9C311.4,357.9 311.4,359.9 311.4,361.7L311.4,396.9C311.4,398.7 311.4,400.7 307.3,400.7L305.7,400.7Z" style="fill:white;"/>
        <path d="M365.1,405.4C379.7,405.4 390.1,395.2 390.1,379.3C390.1,363.3 379.7,353.2 365.1,353.2C352,353.2 340.1,361.9 340.1,379.3C340.1,395.1 350.6,405.4 365.1,405.4ZM365.1,401C360.6,401 352.7,399 352.7,379.3C352.7,362.1 358.8,357.6 365.1,357.6C377,357.6 377.6,373.1 377.6,379.3C377.5,399 369.6,401 365.1,401Z" style="fill:white;"/>
        <path d="M401.7,354.4L401.7,358L403.2,358C405.1,358 407.4,357.9 407.4,361.7L407.4,396.9C407.4,399.8 406.4,400.7 403.2,400.7L401.7,400.7L401.7,404.3L417.5,404.3L417.5,400.7L416,400.7C411.8,400.7 411.8,398.7 411.8,396.9L411.8,369.1L412.7,369.2L438.2,405.4L445.5,405.4L445.5,361.7C445.5,359.6 445.6,358 449.7,358L451.2,358L451.2,354.4L435.4,354.4L435.4,358L436.9,358C438.9,358 441.1,358.1 441.1,361.7L441.1,387.7L440.3,387.7L417,354.4L401.7,354.4Z" style="fill:white;"/>
        <path d="M495.5,366.5L494.8,357C491.2,355 484.9,353.3 480.2,353.3C467.9,353.3 463.3,360.7 463.3,367.5C463.3,375.2 468.3,378.9 473.5,381.8C482.7,387.1 489,389.3 489,394.7C489,399.5 485,401.1 481.3,401.1C476.6,401.1 469.3,398.2 465.5,391.4L463.2,391.4L464.5,402C471.2,404.5 476.3,405.5 481,405.5C491.8,405.5 500,399.3 500,390.8C500,383.9 496,379.9 485.8,374.1C480.8,371.3 473.6,369.1 473.6,363.6C473.6,361.5 475,357.8 479.6,357.8C484,357.8 490.5,360.4 493.2,366.6L495.5,366.6L495.5,366.5Z" style="fill:white;"/>
        <path d="M126.6,428.2L126.6,430.9L127.6,430.9C129.6,430.9 130.7,431.4 130.7,433.8L130.7,459.5C130.7,462.1 130.3,463.1 127.6,463.1L126.6,463.1L126.6,465.8L157.8,465.8L159.4,457L157.6,457C154.5,461.6 150.2,462.5 147.4,462.5L142.4,462.5C140.2,462.5 139.6,461.7 139.6,459.7L139.6,433.9C139.6,431.5 140.5,431 142.7,431L143.8,431L143.8,428.3L126.6,428.3L126.6,428.2Z" style="fill:white;"/>
        <path d="M194.8,428.2L166,428.2L166,430.9L167.2,430.9C170.1,430.9 170.3,432.2 170.3,433.7L170.3,460.1C170.3,461.5 170.3,462.9 167.2,462.9L166,462.9L166,465.6L196.6,465.6L198.5,456.3L196.7,456.3C193.7,461.9 189.5,462.3 186.7,462.3L182,462.3C179.8,462.3 178.9,461.7 178.9,459.5L178.9,447.1L184.8,447.1C187.4,447.1 189.5,447.3 189.7,450.7L191.4,450.7L191.4,440.2L189.7,440.2C189.4,444.1 186.7,443.8 182.7,443.8L179,443.8L179,434.2C179,432 179.7,431.4 182.1,431.4L186.1,431.4C188.2,431.4 192.6,432 194.7,437.2L196.5,437.2L194.8,428.2Z" style="fill:white;"/>
        <path d="M225.5,427.4L223.3,427.4C220.3,429.9 219.1,430.5 215.9,430.6L215.9,432.3L216.5,432.3C218.4,432.3 218.5,433 218.5,433.6C218.5,434.4 218.2,435 217.8,436L209.3,458.4C208.5,460.6 208.2,462.7 203.7,462.9L203.7,465.6L214.8,465.6L214.8,463L213.4,463C212.9,463 212.2,462.9 212,462.6C211.9,462.5 212,462.3 212,462.2C212.1,461.8 212.5,460.4 212.6,460.2L214.7,454.3L228,454.3L230.4,461C230.7,461.8 230.7,462 230.7,462L230.7,462.4C230.6,463 230.2,463 229.8,463L228,463L228,465.7L242.2,465.7L242.2,463C241.8,463 241,463 240.7,462.9C238.3,462.5 237.1,458.8 236.7,457.4L225.5,427.4ZM221,437.4L221.7,437.4L226.7,451L216,451L221,437.4Z" style="fill:white;"/>
        <path d="M278.6,438.5L278.6,431.1C273.9,428.3 269.8,427.4 265.2,427.4C253.3,427.4 247.5,437.8 247.5,447.4C247.5,459.5 255.6,466.5 265.6,466.5C271.7,466.5 278.6,464.4 282.6,460.8C280.2,460.5 280.1,458.2 280.1,456.9L280.1,449.9C280.1,447.5 281,447.1 283.2,447.1L284.3,447.1L284.3,444.4L269,444.4L269,447.1L270.2,447.1C272.3,447.1 273.3,447.6 273.3,449.9L273.3,456.8C273.3,462.2 269.6,463.3 266.6,463.3C257.6,463.3 257.1,451.3 257.1,447.6C257.1,433.9 264.2,430.8 267.9,430.8C271.6,430.8 275.5,433.5 277,438.6L278.6,438.6L278.6,438.5Z" style="fill:white;"/>
        <path d="M297.2,454.9C297.2,465.3 308,466.5 314,466.5C323.7,466.5 327.8,462.7 327.8,452.3L327.8,433.8C327.8,431.4 328.7,430.9 330.9,430.9L332,430.9L332,428.2L320.4,428.2L320.4,430.9C323.7,431 324.5,431.4 324.5,433.8L324.5,451.9C324.5,460.1 322.1,463.2 314.8,463.2C306.6,463.2 306,456.7 306,453.6L306,433.7C306,431.3 306.9,430.8 309.1,430.8L310.2,430.8L310.2,428.1L293,428.1L293,430.8L294,430.8C296,430.8 297.1,431.3 297.1,433.7L297.1,454.9L297.2,454.9Z" style="fill:white;"/>
        <path d="M369.5,428.2L340.7,428.2L340.7,430.9L341.9,430.9C344.8,430.9 345,432.2 345,433.7L345,460.1C345,461.5 345,462.9 341.9,462.9L340.7,462.9L340.7,465.6L371.3,465.6L373.2,456.3L371.4,456.3C368.4,461.9 364.2,462.3 361.4,462.3L356.7,462.3C354.5,462.3 353.6,461.7 353.6,459.5L353.6,447.1L359.5,447.1C362.1,447.1 364.1,447.3 364.4,450.7L366.2,450.7L366.2,440.2L364.4,440.2C364.1,444.1 361.4,443.8 357.4,443.8L353.7,443.8L353.7,434.2C353.7,432 354.4,431.4 356.8,431.4L360.8,431.4C362.9,431.4 367.3,432 369.4,437.2L371.2,437.2L369.5,428.2Z" style="fill:white;"/>
        <path d="M376.3,477.1C376.3,481.8 380.2,485.7 384.9,485.7C389.7,485.7 393.5,481.8 393.5,477.1C393.5,472.3 389.7,468.5 384.9,468.5C380.3,468.5 376.3,472.3 376.3,477.1ZM377.6,477.1C377.6,473 380.9,469.8 384.9,469.8C388.9,469.8 392.2,473.1 392.2,477.1C392.2,481.1 389,484.4 384.9,484.4C380.9,484.4 377.6,481.2 377.6,477.1ZM381.3,472.5L381.3,472.8C382.1,473.1 382.4,473.1 382.4,474.1L382.4,480.1C382.4,481.1 381.9,481.3 381.6,481.3L381.4,481.3L381.4,481.6L384.4,481.6L384.4,481.3L384.2,481.3C383.9,481.3 383.4,481.1 383.4,480.1L383.4,477.8C383.7,477.8 384,477.9 384.4,477.9L385.2,477.9L386.9,480.6C387,480.8 387.1,480.9 387.1,481C387.1,481.3 386.8,481.3 386.5,481.3L386.3,481.3L386.3,481.6L389.2,481.6L389.2,481.3C388.7,481.3 388.3,481.1 388,480.6L386.3,477.6C387.5,477.4 388.3,476.3 388.3,475.1C388.3,472.6 386.1,472.4 385.6,472.4L381.3,472.4L381.3,472.5ZM383.3,474C383.3,473.5 383.4,473.1 384,473.1L384.8,473.1C385.2,473.1 387,473.1 387,475.2C387,476.5 386.1,477.4 384.6,477.4C384.2,477.4 383.7,477.4 383.3,477.3L383.3,474Z" style="fill:white;"/>
        <path d="M189.9,337.1L189.1,336.3C189.3,336.1 211.8,313.6 245.1,314.6C263,315.1 276,321 283.7,325.9C292.1,331.1 296.2,336.2 296.4,336.4L295.5,337.1C295.3,336.9 278.8,316.8 245,315.8C212.2,314.8 190.1,336.9 189.9,337.1ZM327,299.6C326.6,299.3 291.1,268.3 245.1,267.3C193.4,266.1 157.8,299.2 157.5,299.6L156.7,298.8C157.1,298.5 192.9,265.1 245.1,266.2C291.5,267.2 327.4,298.4 327.7,298.8L327,299.6Z" style="fill:white;fill-rule:nonzero;"/>
        <path d="M166.8,310.8L175.7,321.5C177.3,323.4 181.7,328.3 189,322.2C196.2,316.2 192,310.7 190.6,309L181.7,298.3L177.7,301.7L186.1,311.7C188.6,314.6 188.8,316.8 186.3,318.9C183.8,321 181.7,320.3 179.3,317.4L170.9,307.4L166.8,310.8Z" style="fill:white;"/>
        <path d="M215.8,293.7L214.5,289.3L226.4,285.7L225.1,281.5L208.2,286.7L214.7,308.1L231.9,302.9L230.7,298.7L218.5,302.4L217,297.6L227.5,294.4L226.3,290.5L215.8,293.7Z" style="fill:white;"/>
        <path d="M257.2,290.9L257.7,285.8L268.6,286.9L269.1,282.6L252.9,280.9L250.6,303.2L255.8,303.7L256.7,295.2L265.9,296.2L266.4,291.8L257.2,290.9Z" style="fill:white;"/>
        <path d="M299.1,293.7L281.2,309.5L286.1,312.1L289.3,309.1L296.5,312.9L295.8,317.3L300.7,319.9L303.8,296.2L299.1,293.7ZM292.1,306.3L298.7,300.1L297.2,309L292.1,306.3Z" style="fill:white;"/>
    </g>
</svg>
